<svg width="16" height="13" viewBox="0 0 16 13" fill="none" xmlns="http://www.w3.org/2000/svg">
<path d="M11.541 0.5C12.7496 0.5 13.7396 0.877772 14.4209 1.48926C15.0983 2.09737 15.5 2.96192 15.5 4.00293C15.4999 5.13862 15.0062 6.09412 14.2119 6.98438C13.4082 7.88512 12.3335 8.67956 11.2227 9.49805C10.1905 10.2582 9.07563 11.0781 8.21191 11.9961C8.17337 12.0369 8.10494 12.0713 8.02051 12.0713H7.97852C7.9151 12.0713 7.86005 12.0522 7.82031 12.0254L7.78516 11.9961C7.13842 11.3076 6.34944 10.6743 5.56055 10.0801L4.77637 9.49805C3.66508 8.67917 2.59059 7.88426 1.78711 6.9834C0.993166 6.09319 0.500108 5.13831 0.5 4.00293C0.5 2.96192 0.901626 2.09736 1.5791 1.48926C2.26052 0.877757 3.25097 0.5 4.45996 0.5C5.78326 0.500141 6.96147 1.36065 7.65625 2.01465L7.99902 2.33691L8.34082 2.01465C9.03526 1.36097 10.2166 0.500033 11.541 0.5Z" stroke="black"/>
</svg>
